<?xml version="1.0" standalone="no"?>
<!DOCTYPE svg PUBLIC "-//W3C//DTD SVG 20010904//EN"
 "http://www.w3.org/TR/2001/REC-SVG-20010904/DTD/svg10.dtd">
<svg version="1.0" xmlns="http://www.w3.org/2000/svg"
 width="102.000000pt" height="102.000000pt" viewBox="0 0 102.000000 102.000000"
 preserveAspectRatio="xMidYMid meet">
<metadata>
Created by potrace 1.11, written by Peter Selinger 2001-2013
</metadata>
<g transform="translate(0.000000,102.000000) scale(0.100000,-0.100000)"
fill="#000000" stroke="none">
<path d="M445 981 c-59 -28 -139 -103 -187 -176 -23 -36 -44 -63 -46 -60 -2 2
-7 27 -11 57 l-6 52 -38 -46 c-37 -45 -38 -47 -22 -72 9 -14 26 -28 36 -31 17
-6 15 -10 -19 -34 -21 -16 -55 -48 -75 -71 -36 -43 -37 -45 -37 -126 0 -46 5
-107 12 -136 l12 -53 8 50 c15 89 38 173 64 231 49 111 50 109 49 -84 0 -97 3
-202 8 -232 6 -43 5 -51 -4 -35 -32 55 -99 99 -99 64 0 -5 -4 -7 -10 -4 -5 3
-7 0 -5 -7 3 -7 15 -18 28 -23 12 -6 44 -47 72 -93 42 -70 53 -82 70 -76 11 4
62 9 113 11 l94 5 20 35 c27 45 97 97 165 123 l55 20 96 -83 c113 -98 115 -99
136 -91 35 13 14 43 -80 115 l-96 74 6 40 c10 77 37 145 83 212 l46 68 -33 96
c-31 88 -33 100 -22 136 22 73 18 81 -50 112 -119 54 -258 67 -333 32z m369
-78 c-81 -16 -77 -127 8 -235 32 -41 32 -43 -7 -28 -71 27 -320 60 -453 60
-161 1 -161 2 3 80 110 52 228 92 320 109 33 6 69 12 80 15 11 2 31 4 45 3 21
0 22 0 4 -4z m-382 -409 c54 -40 134 -94 178 -121 l81 -48 -65 -7 c-115 -11
-172 -56 -184 -146 l-7 -46 -57 110 c-67 130 -140 317 -163 418 -6 28 -2 26
57 -29 35 -32 107 -91 160 -131z"/>
</g>
</svg>
